<svg xmlns="http://www.w3.org/2000/svg" width="64" height="64" viewBox="0 0 64 64">
  <defs>
    <linearGradient id="g" x1="0" y1="0" x2="1" y2="1">
      <stop offset="0" stop-color="#0ea5e9"/>
      <stop offset="1" stop-color="#38bdf8"/>
    </linearGradient>
  </defs>
  <rect rx="14" ry="14" width="64" height="64" fill="url(#g)"/>
  <g fill="white" opacity="0.95">
    <path d="M20 40c0-7 6-12 12-12s12 5 12 12h4c0-8.8-7.2-16-16-16s-16 7.2-16 16h4z"/>
    <path d="M32 18a2 2 0 1 0 0 4h2.5c4.3 0 7.5 2.7 7.5 6.3 0 3.3-2.5 5.8-6.2 6.2l-7.1.8c-2.3.3-3.7 1.5-3.7 3.2 0 1.9 1.9 3.5 4.4 3.5H34a2 2 0 1 0 0-4h-2.5c-0.9 0-0.9-1.2 0-1.3l7.2-.8C43 35.2 46 31.8 46 28.3 46 22.9 41.4 19 34.5 19H32z"/>
  </g>
</svg>

